<svg xmlns="http://www.w3.org/2000/svg" viewBox="0 0 1444 1444"><defs><style>.cls-1,.cls-3{fill:#fff;}.cls-1{stroke:#fff;stroke-miterlimit:10;stroke-width:60px;}.cls-2{fill:#29873a;}</style></defs><g id="圖層_7" data-name="圖層 7"><ellipse class="cls-1" cx="722" cy="803.7" rx="659.91" ry="581.59"/><path class="cls-1" d="M540.77,163.37c-67.34-89.27-236.22-72.49-319.95,1.25-43.24,38.08-110,102.49-85,201.22,19.21,75.9,126.89,144.08,183.72,115,105-53.75,111.24-80,178.73-146.23C507.08,326,594.52,234.61,540.77,163.37Z"/><path class="cls-1" d="M792,254.61S780.27,153.36,890.73,97.13c83.74-42.64,181.65-54.24,272.46,0,90,53.74,125.1,151.23,108.85,230s-67.6,116.23-127.6,133.73S792,254.61,792,254.61Z"/></g><g id="圖層_2" data-name="圖層 2"><ellipse class="cls-2" cx="726" cy="803.7" rx="659.91" ry="581.59"/><path class="cls-2" d="M544.77,163.37c-67.34-89.27-236.22-72.49-319.95,1.25-43.24,38.08-110,102.49-85,201.22,19.21,75.9,126.89,144.08,183.72,115,105-53.75,111.24-80,178.73-146.23C511.08,326,598.52,234.61,544.77,163.37Z"/><path class="cls-2" d="M796,254.61S784.27,153.36,894.73,97.13c83.74-42.64,181.65-54.24,272.46,0,90,53.74,125.1,151.23,108.85,230s-67.6,116.23-127.6,133.73S796,254.61,796,254.61Z"/></g><g id="圖層_3" data-name="圖層 3"><ellipse class="cls-3" cx="1040.13" cy="260.08" rx="97.16" ry="104.15" transform="translate(362.19 1090.68) rotate(-64.82)"/><ellipse class="cls-3" cx="353.97" cy="295.18" rx="104.84" ry="92.75" transform="translate(-90.66 173.81) rotate(-24.56)"/><path class="cls-3" d="M1164.28,596.23c2.49,8.39,3.36,17.23,3.78,26a185.19,185.19,0,0,1-.9,26.53,253.37,253.37,0,0,1-4.07,26.35c-.95,4.34-2,8.65-3,13L1156.43,701c-1.34,4.24-2.8,8.45-4.21,12.69-.66,2.11-1.52,4.25-2.33,6.39l-1.24,3.21-1.34,3.14c-1.74,4.23-3.72,8.31-5.69,12.43s-4.16,8.07-6.45,12a340.28,340.28,0,0,1-30.51,44.68c-22.57,28.06-48.55,53.13-76.56,75.55a604.3,604.3,0,0,1-89.81,59.21q-23.71,12.8-48.45,23.62c-4.13,1.76-8.23,3.63-12.4,5.3l-12.52,5L852.18,969c-4.27,1.52-8.54,3-12.81,4.45q-25.71,8.53-51.78,15t-52.31,11.4c-17.5,3.29-35,6-52.62,8.41s-35.17,4.31-52.8,5.88-35.26,2.81-52.94,3.59q-13.26.62-26.55,1-6.66.15-13.34.22l-6.72,0-6.95,0,8.6-52.56,2.79,1,2.55.92,5,1.88c3.3,1.26,6.56,2.54,9.79,3.88,6.48,2.67,12.88,5.43,19.24,8.33,12.71,5.8,25.22,12.08,37.5,19a365.46,365.46,0,0,1,36,23.06c2.9,2.2,5.84,4.28,8.68,6.61l4.28,3.44c1.42,1.18,2.81,2.4,4.22,3.6,2.82,2.36,5.54,5,8.28,7.51,1.38,1.24,2.7,2.63,4,4s2.67,2.69,4,4.08l3.85,4.3,1.91,2.16,1.84,2.3,3.66,4.6c1.17,1.61,2.31,3.26,3.46,4.89l1.71,2.46c.56.84,1.08,1.73,1.62,2.6l3.16,5.24c1,1.83,1.92,3.71,2.86,5.56l1.4,2.8,1.22,3,1.2,3,.59,1.49c.21.53.36.86.66,1.78a46.85,46.85,0,0,1,2.19,9.63,50.4,50.4,0,0,1,.17,9.32,55.11,55.11,0,0,1-1.33,8.39,67.41,67.41,0,0,1-5.09,13.95,91.45,91.45,0,0,1-6.6,11.21,142.78,142.78,0,0,1-14.87,18.09c-5.17,5.4-10.53,10.33-16,15s-11,9.09-16.68,13.29q-4.24,3.15-8.59,6.16l-4.4,3-2.24,1.49-2.42,1.57-12.37-34.41c1.29-.08,2-.09,2.94-.11l2.57,0c1.69,0,3.35,0,5,.08,3.3.1,6.55.28,9.8.52q9.7.72,19.26,2.26a225.81,225.81,0,0,1,37.52,9.29c6.13,2,12.12,4.51,18,7.13,2.92,1.4,5.87,2.71,8.73,4.26,1.43.75,2.88,1.47,4.29,2.26l4.21,2.43c1.41.79,2.78,1.67,4.15,2.54l4.09,2.62,4,2.78,2,1.4,1.94,1.47,3.84,3c1.28,1,2.49,2.08,3.73,3.12s2.49,2,3.66,3.17l3.53,3.32c.59.55,1.18,1.09,1.75,1.66l1.68,1.75,3.32,3.51c1.1,1.17,2.11,2.43,3.17,3.64s2.12,2.45,3.08,3.65l5.65,7.21c1.88,2.4,3.77,4.78,5.57,7.25,3.65,4.88,7.24,9.8,10.68,14.84s6.81,10.1,10.15,15.18c6.45,10.33,12.61,20.83,18,31.7,2.77,5.39,5.28,10.93,7.64,16.5,1.14,2.81,2.29,5.6,3.31,8.46s2,5.7,2.77,8.61c-5.6-10.64-12.44-20.45-19.48-30s-14.59-18.76-22.4-27.66c-4-4.41-7.83-8.87-11.94-13.15-2-2.14-4-4.34-6.1-6.43l-6.21-6.32c-2-2.13-4.17-4.18-6.29-6.24l-6.33-6.18c-1.06-1-2.09-1.88-3.14-2.82s-2-1.88-3.13-2.76l-3.25-2.61-1.62-1.31c-.54-.42-1.11-.82-1.67-1.23l-3.35-2.46c-1.09-.83-2.3-1.54-3.44-2.32s-2.28-1.54-3.47-2.26l-3.56-2.11-1.78-1-1.83-1-3.65-1.94-3.74-1.79c-1.24-.6-2.47-1.2-3.76-1.72l-3.8-1.62c-1.26-.54-2.57-1-3.85-1.52-2.55-1-5.19-1.87-7.79-2.78-1.31-.44-2.64-.81-4-1.22s-2.63-.81-4-1.15l-4-1.08-4-1a209,209,0,0,0-32.86-4.72c-5.52-.34-11.06-.49-16.55-.4-2.74,0-5.47.14-8.16.3-1.34.09-2.68.18-4,.3l-1.91.18c-.56.07-1.34.15-1.55.2a18.18,18.18,0,0,1-15.47-32l3.11-2.43,3.47-2.72,3.62-2.94q3.62-3,7.14-6.08c4.69-4.13,9.27-8.35,13.6-12.68s8.43-8.78,12.16-13.26a100.81,100.81,0,0,0,9.57-13.39c2.53-4.31,4.18-8.56,4.49-11.08a9.11,9.11,0,0,0,.07-1.47,1.77,1.77,0,0,0-.17-.63c-.09-.08-.1-.08-.16,0l-.67-1.33-.78-1.61-.76-1.61-1-1.6-1.87-3.21-2.19-3.17c-.37-.53-.71-1.07-1.1-1.59l-1.24-1.56-2.47-3.13-2.74-3-1.36-1.53-1.48-1.49-3-3A204.81,204.81,0,0,0,616,1065.65a342,342,0,0,0-31.88-18.71c-2.75-1.47-5.58-2.84-8.37-4.26s-5.63-2.76-8.5-4.07q-8.54-4-17.27-7.72c-5.8-2.47-11.68-4.82-17.56-7.07-2.94-1.13-5.89-2.21-8.82-3.28l-4.38-1.55-2.15-.74-1.93-.64a27,27,0,0,1,8-52.55h.58l6.06-.1,6.28-.14q6.32-.2,12.67-.44,12.69-.45,25.41-1.2c17-1,33.92-2.17,50.84-3.74s33.8-3.33,50.61-5.49,33.56-4.6,50.21-7.37C759,940.89,792,933.8,823.85,924.39l11.91-3.63,11.78-3.88c7.86-2.78,15.75-5.58,23.54-8.59q23.38-9,46.13-19.65a642.94,642.94,0,0,0,87.35-49.46c27.73-18.8,54-39.88,77.65-63.59,2.89-3,5.89-6,8.68-9l4.26-4.61,4.13-4.7,2.07-2.35,2-2.39c1.33-1.6,2.69-3.19,4-4.81,2.56-3.27,5.2-6.51,7.62-9.88a237.66,237.66,0,0,0,13.76-20.67l1.59-2.66,1.47-2.71c1-1.81,2-3.58,2.9-5.51,1.84-3.8,3.75-7.59,5.56-11.42l5.18-11.6c1.55-3.94,3.18-7.86,4.68-11.84l2.11-6c.72-2,1.47-4,2.06-6,1.26-4.06,2.58-8.12,3.6-12.25s2-8.27,3-12.44c.81-4.19,1.63-8.4,2.17-12.65.35-2.12.56-4.25.78-6.39s.36-4.29.52-6.44A93.61,93.61,0,0,0,1164.28,596.23Z"/><path class="cls-3" d="M107.75,893.69a242.39,242.39,0,0,0,16.06,18.16,165.85,165.85,0,0,0,17,15.33c2.92,2.25,5.85,4.36,8.82,6.25a90.11,90.11,0,0,0,8.95,5,62.84,62.84,0,0,0,8.92,3.57c1.45.5,3,.88,4.46,1.27s3.07.75,4.71,1A162.79,162.79,0,0,0,197,946.8c3.55.23,7.12.4,10.73.48s7.25.14,10.92.12c7.31,0,14.72-.25,22.12-.61,3.69-.16,7.4-.43,11.07-.67,1.84-.12,3.67-.26,5.48-.42l2.68-.24,2.39-.24a26.36,26.36,0,0,1,28,33.5l-.64,2.18-.94,3.26-1,3.64-1.95,7.39c-.65,2.48-1.24,5-1.84,7.47s-1.2,5-1.74,7.49c-2.23,10-4.14,20-5.57,29.8-.73,4.9-1.25,9.77-1.74,14.58-.17,2.38-.39,4.78-.49,7.12s-.19,4.66-.28,7c0,4.57.11,9,.48,13.25L275,1085c.12,1,.32,2,.46,3s.35,1.94.54,2.89l.28,1.43c.1.47.24.89.36,1.34L277,1095l.18.67.3.86,1.22,3.44c.76,2.34,1.75,4.53,2.6,6.83s1.92,4.43,2.84,6.7c.49,1.11,1,2.18,1.54,3.28s1,2.23,1.6,3.27a141.81,141.81,0,0,0,15.63,24.62,130.4,130.4,0,0,0,10,11.15,120.09,120.09,0,0,0,11.65,10.1A113.87,113.87,0,0,0,353.09,1182a61.15,61.15,0,0,1-17.59,2,89.81,89.81,0,0,1-18-2.08,102.59,102.59,0,0,1-17.65-5.57c-2.86-1.22-5.7-2.53-8.48-4-1.41-.7-2.77-1.48-4.13-2.27s-2.75-1.55-4.05-2.43A124.83,124.83,0,0,1,268,1156.35a144.37,144.37,0,0,1-13.45-13.42c-1.08-1.17-2-2.42-3-3.63s-2-2.45-3-3.7-1.87-2.53-2.8-3.8-1.87-2.55-2.72-3.86c-1.73-2.61-3.52-5.23-5.06-7.93l-2.39-4-.6-1-.62-1.24-1.23-2.5a104.17,104.17,0,0,1-7.16-20.15,147.52,147.52,0,0,1-3.34-19.76c-.25-3.21-.55-6.46-.65-9.63s-.13-6.34-.15-9.5c.05-6.27.46-12.45,1-18.56s1.4-12.1,2.39-18,2.16-11.81,3.54-17.62c.67-2.91,1.39-5.8,2.13-8.69s1.58-5.74,2.42-8.6,1.71-5.72,2.66-8.57l1.47-4.31.77-2.2.88-2.44,27.37,35.69-1.88.08-1.69,0-3.27,0q-3.26,0-6.46,0c-4.28-.05-8.54-.26-12.8-.49-8.51-.51-17-1.38-25.58-2.69-4.27-.63-8.55-1.45-12.83-2.31s-8.58-2-12.87-3.14a146.9,146.9,0,0,1-25.75-9.69c-2.12-1-4.28-2.21-6.37-3.4s-4.22-2.56-6.25-4a84.48,84.48,0,0,1-11.16-9.29,97.92,97.92,0,0,1-9.22-10.46,110.07,110.07,0,0,1-7.42-11.24,118.3,118.3,0,0,1-10.35-23.77A104.2,104.2,0,0,1,107.75,893.69Z"/><path class="cls-3" d="M144.2,549.13c2.37,10.4,7.13,20.19,13.12,29.13,3.32,4.24,6.5,8.66,10.61,12.2a73.66,73.66,0,0,0,6,5.49l6.55,4.77c17.55,12.44,38.28,20,59.49,23.75,21.32,3.46,43.06,3.08,64.18.37C346.54,619.51,386.87,607,426.87,596c39.93-11.19,79.72-21.55,119.64-26.32,10-1.22,19.93-2,29.86-2.48,5-.22,9.91-.22,14.86-.34l15.26.25c10.17.06,20.34.53,30.49,1.14,10.16.39,20.3,1.4,30.43,2.23,40.54,3.57,80.73,10.45,121,18.62,40.42,8,80.28,18.48,124.26,24.71,5.52.75,11.06,1.47,16.87,1.84l8.62.68,7.94.42,31.68,1.34c10.61.34,21.26.59,32,.65l16.34-.08,8.42-.24,4.42-.22,2.36-.15,3-.28,24.41-4s28.45-15.46,33.44-36.08c5.21-21.46,0-31.87,0-31.87l-66.31,8.64c.32,0-.44.09-.83.14l-1.53.2-3.36.39-7.15.66-14.83,1c-10,.58-20.16,1-30.35,1.33l-30.71.66-7.65.09-7-.12c-4.58,0-9.39-.29-14.22-.64-38.75-2.88-80.23-10.71-121.85-16.32s-84.12-10.24-126.67-11.26c-10.64-.19-21.26-.56-31.91-.29-10.63.05-21.26.24-31.88.86l-15.94.75c-5.43.48-10.88.84-16.28,1.42-10.8,1.22-21.51,2.77-32.09,4.75-42.4,7.86-82.65,21.27-122,35-39.36,13.6-78.08,28.35-118,35.95-19.91,3.86-40.28,6.65-60.11,3.55-21.75-3.4-38.53-10.8-55.69-21.4l-6.34-4a67,67,0,0,1-5.81-4.7c-4-3-7.18-6.9-10.53-10.64a91.1,91.1,0,0,1-14.47-28.1c-.42-1.4-.8-2.78-1.16-4.16q-2,3.17-4,6.35C143.74,547,144,548.07,144.2,549.13Z"/></g></svg>