<svg xmlns="http://www.w3.org/2000/svg" viewBox="0 0 1444 1444"><defs><style>.cls-1,.cls-3{fill:#fff;}.cls-1{stroke:#fff;stroke-miterlimit:10;stroke-width:60px;}.cls-2{fill:#29873a;}</style></defs><g id="圖層_7" data-name="圖層 7"><path class="cls-1" d="M1379.44,846.8c0,312.33-294.32,538.5-657.39,538.5S64.66,1159.13,64.66,846.8,306,254.25,722.05,254.25,1379.44,534.47,1379.44,846.8Z"/><path class="cls-1" d="M531,170.24c-41.61-93.37-194.66-109.57-286.44-62.6C198.09,131.41,131.88,190.2,134.9,284.51,137.21,357,189.09,457.08,244,440.92c101.43-29.85,201.34-92.55,272.55-140.56C525.84,294.09,564.21,244.76,531,170.24Z"/><path class="cls-1" d="M879.61,270.6c-14.84-52-1.13-128.53,74.46-175.07s171.13-52.23,255.08,1.59c83.19,53.32,113.1,145.74,95.13,218.88s-67.72,106.51-125,120.87S894.45,322.61,879.61,270.6Z"/></g><g id="圖層_2" data-name="圖層 2"><path class="cls-2" d="M1383.44,846.8c0,312.33-294.32,538.5-657.39,538.5S68.66,1159.13,68.66,846.8,310,254.25,726.05,254.25,1383.44,534.47,1383.44,846.8Z"/><path class="cls-2" d="M535,170.24c-41.61-93.37-194.66-109.57-286.44-62.6C202.09,131.41,135.88,190.2,138.9,284.51,141.21,357,193.09,457.08,248,440.92c101.43-29.85,201.34-92.55,272.55-140.56C529.84,294.09,568.21,244.76,535,170.24Z"/><path class="cls-2" d="M883.61,270.6c-14.84-52-1.13-128.53,74.46-175.07s171.13-52.23,255.08,1.59c83.19,53.32,113.1,145.74,95.13,218.88s-67.72,106.51-125,120.87S898.45,322.61,883.61,270.6Z"/></g><g id="圖層_3" data-name="圖層 3"><rect class="cls-3" x="248.56" y="532.36" width="954.98" height="628.9" rx="175.54"/><ellipse class="cls-3" cx="1109.74" cy="235.92" rx="83.49" ry="107.15" transform="translate(655.7 1275.65) rotate(-78.41)"/><ellipse class="cls-3" cx="340.34" cy="252.45" rx="98.56" ry="83.49" transform="translate(-57.89 107.63) rotate(-16.58)"/></g><g id="圖層_4" data-name="圖層 4"><path class="cls-2" d="M564.2,673.57c-22.81,22.81-19.55,327.48,0,347s391-128.71,391-173.52S587,650.76,564.2,673.57Z"/></g></svg>