<svg xmlns="http://www.w3.org/2000/svg" viewBox="0 0 1444 1444"><defs><style>.cls-1,.cls-3{fill:#fff;}.cls-1{stroke:#fff;stroke-miterlimit:10;stroke-width:60px;}.cls-2{fill:#29873a;}</style></defs><g id="圖層_7" data-name="圖層 7"><ellipse class="cls-1" cx="722" cy="803.7" rx="659.91" ry="581.59"/><path class="cls-1" d="M540.77,163.37c-67.34-89.27-236.22-72.49-319.95,1.25-43.24,38.08-110,102.49-85,201.22,19.21,75.9,126.89,144.08,183.72,115,105-53.75,111.24-80,178.73-146.23C507.08,326,594.52,234.61,540.77,163.37Z"/><path class="cls-1" d="M792,254.61S780.27,153.36,890.73,97.13c83.74-42.64,181.65-54.24,272.46,0,90,53.74,125.1,151.23,108.85,230s-67.6,116.23-127.6,133.73S792,254.61,792,254.61Z"/></g><g id="圖層_2" data-name="圖層 2"><ellipse class="cls-2" cx="726" cy="803.7" rx="659.91" ry="581.59"/><path class="cls-2" d="M544.77,163.37c-67.34-89.27-236.22-72.49-319.95,1.25-43.24,38.08-110,102.49-85,201.22,19.21,75.9,126.89,144.08,183.72,115,105-53.75,111.24-80,178.73-146.23C511.08,326,598.52,234.61,544.77,163.37Z"/><path class="cls-2" d="M796,254.61S784.27,153.36,894.73,97.13c83.74-42.64,181.65-54.24,272.46,0,90,53.74,125.1,151.23,108.85,230s-67.6,116.23-127.6,133.73S796,254.61,796,254.61Z"/></g><g id="圖層_3" data-name="圖層 3"><ellipse class="cls-3" cx="1040.13" cy="260.08" rx="97.16" ry="104.15" transform="translate(362.19 1090.68) rotate(-64.82)"/><ellipse class="cls-3" cx="356.83" cy="293.88" rx="101.7" ry="92.75" transform="translate(-89.86 174.88) rotate(-24.56)"/><path class="cls-3" d="M1186.41,613.68l.16,1.33.12,1.2c.07.79.14,1.57.19,2.34.11,1.54.17,3.07.22,4.6.09,3.05.07,6.08,0,9.1q-.32,9.06-1.46,18a236.2,236.2,0,0,1-7.47,35.22c-1.66,5.77-3.57,11.46-5.59,17.12s-4.28,11.21-6.72,16.7a297.09,297.09,0,0,1-16.3,32.07,348.51,348.51,0,0,1-42.75,58A428.16,428.16,0,0,1,1054,858.22a563.5,563.5,0,0,1-59.24,40.28c-10.24,6.11-20.67,11.84-31.17,17.42s-21.19,10.78-32,15.74S910,941.41,899.11,946l-16.45,6.7Q874.35,956,866,959.12c-22.29,8.24-44.81,15.55-67.46,22.13-45.3,13.19-91,23.89-136.84,33.38q-17.16,3.55-34.42,6.3c-11.49,1.84-23,3.36-34.42,4.9-5.7.77-11.39,1.52-17,2.35l-8.21,1.26c-2.65.43-5.28.92-7.47,1.36l-2.31.51s0,0,.19-.09.56-.21,1.5-.68a23.38,23.38,0,0,0,2.34-1.36,22.75,22.75,0,0,0,2.39-1.81,24.77,24.77,0,0,0,4.21-4.65,25.87,25.87,0,0,0,4.62-13.57c0-7.79-2-11.5-3.26-13.76a24.72,24.72,0,0,0-3.58-4.89,25.1,25.1,0,0,0-2.4-2.23c-.62-.5-1.3-1-1.59-1.17s-.9-.57-1.08-.68-.52-.3-.76-.42l-.48-.25-.35-.16-.28-.12-.26-.1c-.18-.06.06,0,.38.16.7.25,1.81.6,3,.94,2.37.7,5.08,1.44,7.82,2.18l8.42,2.27c11.42,3.08,23.11,6.46,34.75,10.41a336.37,336.37,0,0,1,34.8,13.81,218.44,218.44,0,0,1,33.87,19.41,137.75,137.75,0,0,1,30.33,28.74,104.32,104.32,0,0,1,11.56,19c.8,1.71,1.54,3.46,2.25,5.21l.51,1.33.26.67.29.79c.46,1.38.95,2.75,1.28,4.16a47.94,47.94,0,0,1,1.29,16.4,58.94,58.94,0,0,1-3,13.84,78.46,78.46,0,0,1-5,11.21,115.85,115.85,0,0,1-12.06,17.83,220.24,220.24,0,0,1-27.16,27.42c-4.73,4.07-9.53,8-14.42,11.7q-3.68,2.82-7.42,5.54l-3.8,2.71-1.95,1.35L653,1204h0l-7.68-38.58,4.35,1.15,4.19,1.16c2.79.77,5.55,1.58,8.31,2.39q8.26,2.43,16.45,5,16.39,5.22,32.55,11.27c10.77,4,21.49,8.31,32.07,13.1a341,341,0,0,1,31.34,16c5.13,3,10.21,6.23,15.19,9.79,1.25.88,2.47,1.85,3.71,2.77.6.46,1.25.93,1.81,1.4l1.69,1.4,3.37,2.8c1.11.94,2.21,1.92,3.31,2.88a240.34,240.34,0,0,1,24.78,25,163.54,163.54,0,0,1,19.93,29.25,107.82,107.82,0,0,1,7,16.43,85.66,85.66,0,0,1,2.35,8.73c.31,1.49.56,3,.75,4.55.1.77.18,1.55.24,2.36,0,.42.06.81.07,1.27v1.1c0,.28,0,.58,0,.86a4.65,4.65,0,0,1-9.25-.92,1.29,1.29,0,0,0,0,.33l0-.13-.07-.33-.19-.82c-.15-.57-.31-1.16-.49-1.76-.35-1.19-.78-2.39-1.24-3.59a73.31,73.31,0,0,0-3.17-7.1,101.8,101.8,0,0,0-8.33-13.35,150.13,150.13,0,0,0-21.5-23.32,219.77,219.77,0,0,0-25.44-19.4c-1.13-.73-2.23-1.48-3.36-2.2l-3.42-2.12-1.7-1.06c-.57-.36-1.1-.65-1.64-1-1.1-.63-2.15-1.29-3.27-1.89-4.44-2.46-9.15-4.7-13.92-6.83a309,309,0,0,0-30-11.1q-15.42-4.87-31.27-8.9c-10.55-2.7-21.21-5.08-31.89-7.34q-8-1.68-16-3.2l-8-1.46-4-.7-3.84-.63a20.89,20.89,0,0,1-10.07-36.58l2.38-2h0l3-2.21,3.19-2.42c2.12-1.65,4.24-3.33,6.33-5,4.18-3.41,8.27-6.93,12.21-10.53a176.47,176.47,0,0,0,21-22.4,71,71,0,0,0,7.07-11.06,32.44,32.44,0,0,0,1.91-4.69,12,12,0,0,0,.56-3.08c0-.68-.11-.82-.14-.8s0,0,0,0l-.52-1.25c-.41-.91-.82-1.81-1.29-2.7a58.08,58.08,0,0,0-6.79-10.32,91.58,91.58,0,0,0-20.57-18A169.89,169.89,0,0,0,628.09,1060a286.52,286.52,0,0,0-30-10.78c-10.38-3.15-21-5.86-32-8.46l-8.4-2c-2.86-.68-5.76-1.36-9-2.19-1.63-.42-3.3-.87-5.35-1.5-1.05-.34-2.17-.7-3.7-1.3l-1.26-.52-.77-.34-.84-.41-1-.49-1.23-.69c-.34-.19-1-.62-1.53-1s-1.27-.88-2-1.49a28.44,28.44,0,0,1-2.81-2.6,27.49,27.49,0,0,1-3.91-5.31c-1.31-2.43-3.45-6.3-3.41-14.28a26.82,26.82,0,0,1,9.39-19.11,27,27,0,0,1,2.82-2.13,31.3,31.3,0,0,1,3.29-1.9,35.32,35.32,0,0,1,3.5-1.52c.88-.33,1.59-.57,2.24-.79,2.53-.82,4.3-1.27,6.07-1.72,3.44-.87,6.48-1.51,9.51-2.17l8.85-1.88L583.8,972c11.39-2.29,22.69-4.56,34-6.6s22.61-3.94,33.92-5.7c45.22-7,90.12-15.21,134.26-25.71,22.06-5.28,43.94-11.06,65.44-17.7q8.05-2.49,16-5.15l16-5.53c10.62-3.83,21.22-7.73,31.66-12,41.84-16.77,82.29-36.88,119.06-62.26a409.63,409.63,0,0,0,51.71-42.17,328.41,328.41,0,0,0,42.92-50.9,291.46,291.46,0,0,0,31.45-58.85,224.27,224.27,0,0,0,9.75-31.92c1.21-5.42,2.18-10.9,2.88-16.39.33-2.74.61-5.49.78-8.22.09-1.36.16-2.73.19-4.07l0-2,0-1.79v-.56a6.29,6.29,0,0,1,12.54-.85Z"/><path class="cls-3" d="M157.16,920.53l2.18,2.36,2.29,2.42q2.3,2.41,4.67,4.79,4.72,4.73,9.64,9.25c6.53,6,13.29,11.7,20.21,16.92a158.73,158.73,0,0,0,21.2,13.63A92,92,0,0,0,228,974.68l2.6.89c.93.29,1.91.59,2.88.86q2.91.86,5.89,1.57c15.93,3.89,32.88,5.5,50.4,6.31,4.39.21,8.84.36,13.4.52s9.2.3,14.32.63c2.58.17,5.25.38,8.49.83a55.08,55.08,0,0,1,5.73,1.11,41.6,41.6,0,0,1,4.2,1.29,34.89,34.89,0,0,1,7,3.5,29.25,29.25,0,0,1,2.76,2,30.55,30.55,0,0,1,3.44,3.2c.65.71,1.28,1.44,1.87,2.2.23.29.78,1,1.14,1.57s.79,1.19,1.15,1.8a35.14,35.14,0,0,1,1.74,3.39c.22.52.44,1,.64,1.56s.4,1.1.54,1.53a35,35,0,0,1,1.65,8.86,38.15,38.15,0,0,1-.06,5.15,44.52,44.52,0,0,1-.94,5.84c-.33,1.45-.63,2.58-.92,3.6-.59,2-1.08,3.58-1.53,5l-1.28,3.94a123.6,123.6,0,0,1-4.6,12.68c-1.67,3.78-3.67,7.23-5.31,10.76a128.2,128.2,0,0,0-8.1,20.84,89,89,0,0,0-3.46,20.79,71.58,71.58,0,0,0,.38,10.44c.1.87.21,1.74.34,2.62l.21,1.3c.06.41.21,1,.31,1.48l1.35,6.15a174.86,174.86,0,0,0,7.34,23.79,130.77,130.77,0,0,0,10.84,22,108.06,108.06,0,0,0,7,10,84.77,84.77,0,0,0,8.23,8.92,67.33,67.33,0,0,0,9.48,7.54,54.18,54.18,0,0,0,5.15,3.07c.88.47,1.77.89,2.64,1.29.43.18.88.38,1.29.54l.6.25.27.1c.06,0,.21.07.11.08a7.14,7.14,0,0,1-1.51,14.2l-1.32-.07-1.09-.08c-.71-.06-1.38-.14-2.06-.22q-2-.25-4-.63a71.74,71.74,0,0,1-7.64-1.93,87,87,0,0,1-14.39-6,114.41,114.41,0,0,1-25.09-18.27,161.71,161.71,0,0,1-20-23.43,212,212,0,0,1-15.48-26.19c-1.12-2.25-2.19-4.52-3.28-6.79-.28-.6-.54-1.08-.83-1.77l-.85-2c-.55-1.32-1.08-2.64-1.58-4a118.9,118.9,0,0,1-4.89-16.53,131.13,131.13,0,0,1-2.78-34,183.72,183.72,0,0,1,4.57-32.59,137.66,137.66,0,0,1,4.09-15.07c.85-2.37,1.8-4.65,2.81-6.8s2.06-4.18,3-6l2-3.92c.05-.07.07,0,0,.29a22.87,22.87,0,0,0-.32,2.46,27.41,27.41,0,0,0,0,3.44,29.18,29.18,0,0,0,1.4,7.17c.12.36.29.88.46,1.32s.37.91.57,1.36a27.65,27.65,0,0,0,1.54,3c.33.55.67,1.09,1,1.62s.84,1.16,1,1.4c.5.64,1,1.27,1.59,1.87A25.69,25.69,0,0,0,307,1041a24.5,24.5,0,0,0,2.07,1.49,16.26,16.26,0,0,0,4,2c.68.2.83.18,1,.15s-.34-.36-.93-.62a48.61,48.61,0,0,0-5-1.7c-3.93-1.16-8.38-2.3-12.87-3.47s-9.13-2.38-13.78-3.65c-18.62-5.1-37.73-11.21-56.11-20.35-2.3-1.14-4.58-2.33-6.85-3.59-1.14-.62-2.25-1.26-3.4-1.92l-3.59-2.11a127.88,127.88,0,0,1-13-9.26,190.89,190.89,0,0,1-21.64-20.76c-6.51-7.26-12.52-14.75-18.17-22.43q-4.23-5.76-8.19-11.67-2-3-3.91-6l-1.91-3-1.93-3.14a8.89,8.89,0,0,1,14.12-10.67Z"/><path class="cls-3" d="M111.67,584.75c2.86,10.29,8.08,19.84,14.49,28.48,3.52,4.08,6.91,8.34,11.18,11.68a75.25,75.25,0,0,0,6.23,5.2l6.76,4.46c18.12,11.58,39.19,18.14,60.56,20.89,21.46,2.44,43.16,1,64.13-2.7,42.11-7.34,81.8-21.81,121.22-34.69,39.36-13.07,78.61-25.32,118.26-32,9.9-1.68,19.81-2.94,29.7-3.9,4.95-.45,9.9-.69,14.84-1l15.24-.46c10.17-.43,20.35-.45,30.52-.33,10.17-.09,20.34.44,30.5.79C676,582.76,716.43,587.72,757,594c40.76,6.11,81.07,14.64,125.3,18.76,5.54.48,11.11.95,16.93,1l8.64.27,8,0,31.71-.16c10.61-.17,21.26-.43,32-.88l16.32-.86,8.4-.64,4.4-.43,2.35-.26,3-.42,24.2-5.16s27.67-16.8,31.68-37.64c4.18-21.68-1.53-31.83-1.53-31.83l-65.82,11.79c.32,0-.44.11-.83.18l-1.52.27-3.33.55-7.11,1-14.76,1.74c-10,1.06-20.1,2-30.26,2.76l-30.64,2.13-7.63.45-7,.22c-4.58.25-9.4.15-14.24,0-38.85-1-80.65-6.89-122.49-10.5s-84.51-6.23-127.06-5.22c-10.64.32-21.27.46-31.89,1.23-10.62.55-21.22,1.25-31.8,2.37l-15.89,1.52c-5.4.73-10.82,1.35-16.19,2.19-10.73,1.73-21.36,3.78-31.83,6.27-42,9.87-81.54,25.18-120.19,40.81-38.67,15.46-77,25-116.49,34.52-19.7,4.81-40.2,2.67-60.16.52-21.89-2.36-43.19-15.16-54.45-22.23-3.39-2.13-14.58-11.19-19.38-18.32a127.17,127.17,0,0,1-14-28.06c-.48-1.38-.93-2.74-1.36-4.1-1.25,2.17-10.1,21.5-11.33,23.68C111.11,582.65,111.38,583.71,111.67,584.75Z"/></g></svg>